<svg id="Layer_1" data-name="Layer 1" xmlns="http://www.w3.org/2000/svg" viewBox="0 0 60 60"><defs><style>.cls-1{fill:#9e7137;stroke:#9e7137;stroke-miterlimit:10;stroke-width:1.66px;}.cls-2{fill:#fff;}</style></defs><path class="cls-1" d="M48,.83H12a5.5,5.5,0,0,0-5.5,5.49V42.37A5.5,5.5,0,0,0,12,47.86H22.3l7.63,10.37,7.69-10.37H48a5.5,5.5,0,0,0,5.5-5.49v-36A5.5,5.5,0,0,0,48,.83Z"/><path class="cls-2" d="M7.82,28.28A.79.79,0,0,0,8,29c1.55,1.18,3.13,2.32,4.74,3.5l1.09-2-5-4.17C8.43,27.07,8.08,27.66,7.82,28.28Z"/><path class="cls-2" d="M44.26,12.73c-.1-.87-.2-1.71-.3-2.55s-.21-1.74-.32-2.59H41C40.92,10.49,42.09,12.37,44.26,12.73Z"/><path class="cls-2" d="M27.25,6.52H43.41c.09-2,.09-2-1.83-2H28.94c-1.84,0-1.9,0-1.82,1.85A1.18,1.18,0,0,1,27.25,6.52Z"/><path class="cls-2" d="M47.8,41.64c-.66-5.49-1.34-11-2-16.47-.42-3.44-.8-6.89-1.26-10.32a1.62,1.62,0,0,0-.8-1.17,4.59,4.59,0,0,1-3.31-3.46c-.24-.85-.35-1.74-.53-2.66H30.66c0,.4-.05.71-.1,1,0,.07,0,.13,0,.2a6.49,6.49,0,0,1,1.42,2.89,8.66,8.66,0,0,1-.21,4.12c0,.12-.07.24-.12.39a.5.5,0,0,1-.46.36.43.43,0,0,1-.21-.05l-.63-.27-1.81-.79-.1.07-1,.54c-.58.32-1.14.63-1.71.92-.09.79-.19,1.58-.28,2.37-.08.63-.16,1.26-.23,1.89a4.87,4.87,0,0,1-1.1.14c-2.47,0-4.1-1.62-5-4l-.94.38c.43,2.83,3.29,4.87,6.49,4.71l.39-.05L25,23l-.35.05c-3.6.25-5.89-1.65-7.26-4.91a22,22,0,0,0-8,7.33l4.92,4.06c.16-.18.3-.35.45-.51L15,29V44.39H33.22V28.75c.35.39.5.55.65.73l3.61-3c.09.45.18.89.26,1.34l-3.31,2.74,1.1,1.93,2.74-2c.71,3.65,1.44,7.29,2.14,11,.44,2.23.41,2.24,2.75,2.24H48C47.91,42.87,47.87,42.26,47.8,41.64ZM34.39,20.52q.39-1.72.81-3.45a2.41,2.41,0,0,1,.68,1.24c.3,1.5.59,3,.88,4.5A22.24,22.24,0,0,0,34.39,20.52Z"/><path class="cls-2" d="M23.1,12.44l4.8,2.2a12.88,12.88,0,0,0,0-3.77,8.33,8.33,0,0,0-1.65-3.79A.41.41,0,0,0,26,6.91a7.44,7.44,0,0,0-2.93.24,5.44,5.44,0,0,0-3.72,3.37c-.19.47-.38,1-.54,1.37a13.68,13.68,0,0,1,1.54-.17A6.43,6.43,0,0,1,23.1,12.44Z"/><path class="cls-2" d="M21.15,15.44a13.7,13.7,0,0,0,1.61,1.23,2.23,2.23,0,0,0,2.23.15c1.06-.53,2.1-1.14,3.19-1.73L28,15c-1.85-.85-3.68-1.72-5.55-2.53a4.49,4.49,0,0,0-3.71-.18c-.62.27-1.26.48-1.89.72a4.87,4.87,0,0,1,2.73,1.08C20.13,14.51,20.62,15,21.15,15.44Z"/><path class="cls-2" d="M28.44,14.9l2.71,1.17s0,0,0,0,.08-.26.11-.38a8.19,8.19,0,0,0,.21-3.9,6,6,0,0,0-4.28-4.6c-.14,0-.28-.08-.43-.12,0,0,0,0,0,0l.14.23a8.43,8.43,0,0,1,1.4,3.58,12.68,12.68,0,0,1,0,3.74C28.26,14.8,28.32,14.85,28.44,14.9Z"/><path class="cls-2" d="M16.5,16.57a13,13,0,0,0,1.26-.7,6.13,6.13,0,0,0,1.53-1.39,4.11,4.11,0,0,0-1.6-.81,1.9,1.9,0,0,0-2.46,2.17A.85.85,0,0,0,16.5,16.57Z"/><path class="cls-2" d="M25.76,6.64l1.12.17A.69.69,0,0,0,25.76,6.64Z"/></svg>