<svg id="Layer_1" data-name="Layer 1" xmlns="http://www.w3.org/2000/svg" viewBox="0 0 60 60"><defs><style>.cls-1{fill:#006838;stroke:#006838;stroke-miterlimit:10;stroke-width:1.66px;}.cls-2{fill:#fff;}</style></defs><path class="cls-1" d="M48,.83H12a5.5,5.5,0,0,0-5.5,5.49V42.37A5.5,5.5,0,0,0,12,47.86H22.3l7.63,10.37,7.69-10.37H48a5.5,5.5,0,0,0,5.5-5.49v-36A5.5,5.5,0,0,0,48,.83Z"/><path class="cls-2" d="M32.91,23.81a1.91,1.91,0,0,0-2,.71.51.51,0,0,1-.86,0,2,2,0,0,0-3.08-.07,1.67,1.67,0,0,0-.45,1.36,34,34,0,0,0,1.12,4.77c.11.34.26.67.38,1h.06a3.61,3.61,0,0,0,.29-.43c.25-.5.49-1,.73-1.51a1.51,1.51,0,0,1,2.73-.06c.23.48.44,1,.67,1.43a5.35,5.35,0,0,0,.36.56h.08c.13-.36.28-.71.4-1.08a37.58,37.58,0,0,0,1-4.19,2.21,2.21,0,0,0,.06-1A1.92,1.92,0,0,0,32.91,23.81Z"/><path class="cls-2" d="M41,36.28c-.05-1.64.42-1.81-1.69-2-.06,0-.11-.09-.19-.16V21.68c1.89-.34,1.75-.36,1.92-2.25.22-2.3-.28-4.19-2.18-5.63a5.92,5.92,0,0,1-1.07-1.16,1.93,1.93,0,0,0-1.94-.86c-.87.14-1.09-.32-1.16-1.08-.2-2.28-.48-4.56-.67-6.84C34,3.1,33.68,2.79,32.93,2.8q-3,0-6.09,0c-.8,0-1.13.29-1.19,1.11-.18,2.29-.47,4.56-.67,6.84-.07.8-.38,1.11-1.21,1.06a2,2,0,0,0-1.35.32c-2.43,2.2-4.6,4.52-3.79,8.26.17.77.36,1.17,1.16,1.16a5.11,5.11,0,0,1,.76.1V34.28c-1.88.23-1.88.23-1.88,2a9.24,9.24,0,0,1,0,1.58,3.36,3.36,0,0,0,2.17,3.78,9.32,9.32,0,0,0,3.59,1.11c3.64.14,7.3.15,10.94,0A9.12,9.12,0,0,0,39,41.62a3.27,3.27,0,0,0,2-3.65A13.59,13.59,0,0,1,41,36.28ZM20.28,20c0-1.59-.34-3.06,1-4.53a5.78,5.78,0,0,1,5-2.19c3,.21,6,0,9,.08a3.57,3.57,0,0,1,1.54.65,4.61,4.61,0,0,1,.79.8c2,2.09,2,2.09,1.73,5.19Zm15,6.81a36.22,36.22,0,0,1-1,4.08,5,5,0,0,1-.68,1.5.8.8,0,0,1-1.17.19,2.34,2.34,0,0,1-.76-.92c-.26-.49-.49-1-.72-1.49a.53.53,0,0,0-.37-.36.51.51,0,0,0-.59.34c-.22.48-.43,1-.69,1.44a3.25,3.25,0,0,1-.61.81c-.54.52-1.09.48-1.45-.16a8.08,8.08,0,0,1-.65-1.58A32.58,32.58,0,0,1,25.49,26a2.64,2.64,0,0,1,.74-2.21,2.89,2.89,0,0,1,2.37-1,2.93,2.93,0,0,1,1.85.75,3.22,3.22,0,0,1,1.39-.7,3,3,0,0,1,3.55,2.44A4.35,4.35,0,0,1,35.26,26.77Zm.49,14.45c-3.91.18-7.83.16-11.73,0-1.12-.05-2.23-.92-3.29-1.5a1.28,1.28,0,0,1-.47-.94c-.07-.89,0-1.8,0-2.84H39.28C40.12,38.89,38.78,41.09,35.75,41.22Z"/></svg>