<svg id="Layer_1" data-name="Layer 1" xmlns="http://www.w3.org/2000/svg" viewBox="0 0 60 60"><defs><style>.cls-1{fill:#be1e2d;stroke:#be1e2d;stroke-miterlimit:10;stroke-width:1.66px;}.cls-2{fill:#fff;}</style></defs><path class="cls-1" d="M48,.83H12a5.5,5.5,0,0,0-5.5,5.49V42.37A5.5,5.5,0,0,0,12,47.86H22.3l7.63,10.37,7.69-10.37H48a5.5,5.5,0,0,0,5.5-5.49v-36A5.5,5.5,0,0,0,48,.83Z"/><path class="cls-2" d="M13.06,38.18c0,1.37.1,2.74.13,4.11a10.29,10.29,0,0,1,0,1.11c0,.33-.25.46-.57.35a.66.66,0,0,1-.5-.71c0-2.21,0-4.42-.06-6.64a43.2,43.2,0,0,0-.41-5.2A15.47,15.47,0,0,0,11,28.62a8.62,8.62,0,0,1,1-7.51c.37-.6.81-1.15,1.2-1.73a1.22,1.22,0,0,1,.5-.48c.26-.1.42-.1.56.13a2.1,2.1,0,0,0,.63.63,16,16,0,0,1,2.3,2.42q2.28,2.81,4.59,5.6c1.62,2,3.13,4,4.55,6.14a19.56,19.56,0,0,0,2,2.47,5.34,5.34,0,0,0,3.18,1.6l2.72.41.3.08c.9.25,1.81.48,2.7.75a32.2,32.2,0,0,1,5.15,1.93,6.93,6.93,0,0,1,1.13.71c.62.49.57,1-.16,1.3a9.2,9.2,0,0,1-1.81.53,37.51,37.51,0,0,1-4.72.56c-3.19.22-6.37.19-9.56.2a4.28,4.28,0,0,1-3.56-1.73,17.23,17.23,0,0,1-1.07-1.51,37.62,37.62,0,0,1-2.27-4.42,12.93,12.93,0,0,0-2.22-3.49,5.09,5.09,0,0,0-2.74-1.69,3.38,3.38,0,0,0-1.89.12.41.41,0,0,0-.3.32A6.53,6.53,0,0,0,13,33.12c0,1.56,0,3.12,0,4.68,0,.13,0,.25,0,.38Zm21.21,1.18V39.3c-.27,0-.53-.13-.8-.16-.87-.1-1.75-.18-2.63-.3a4.12,4.12,0,0,1-2.6-1.32c-.51-.56-1-1.13-1.49-1.73-1.23-1.61-2.41-3.27-3.66-4.87-2.18-2.76-4.4-5.48-6.6-8.22l-.39-.47a.39.39,0,0,0,.06.18c.42.62.84,1.25,1.25,1.88,2.37,3.67,4.74,7.36,7.13,11a46.53,46.53,0,0,0,3.15,4.37A3.38,3.38,0,0,0,30,41a3.89,3.89,0,0,0,1.69-.19A8.32,8.32,0,0,0,34.27,39.36Z"/><path class="cls-2" d="M28.94,27.32h.47c1.46,0,2.92-.05,4.38,0a34.59,34.59,0,0,1,3.66.35,9.87,9.87,0,0,0,2.82-.07,26,26,0,0,1,3-.28c1.52,0,3,0,4.57,0h.47c-.19-.39-.34-.73-.51-1.05l-1.44-2.71c-.2-.37-.4-.45-.78-.26a7.11,7.11,0,0,0-.72.5c-.12.08-.23.23-.35.23a.69.69,0,0,1-.48-.19c-.06-.06,0-.36.12-.43.51-.38,1-.73,1.59-1.07a.53.53,0,0,1,.8.18q1.69,2.76,3.37,5.53c.25.41.37.83-.14,1.18-.06,0-.07.2-.06.31A6.23,6.23,0,0,1,49,33.15a2.88,2.88,0,0,1-.93,1,6.68,6.68,0,0,1-5.53.7A3.59,3.59,0,0,1,40,32a19.17,19.17,0,0,1-.31-2.13,1,1,0,0,0-1-1,1,1,0,0,0-1,1,21,21,0,0,1-.29,2.09,3.83,3.83,0,0,1-3.47,3.14,8,8,0,0,1-3.63-.42,3.71,3.71,0,0,1-2.48-2.92,19.72,19.72,0,0,1-.24-2.17.63.63,0,0,0-.12-.4.65.65,0,0,1-.18-.89c.48-.88.94-1.76,1.45-2.61.63-1,1.29-2,1.95-3,.3-.46.56-.51,1-.21l1.38.92c.19.13.36.27.2.53a.45.45,0,0,1-.67.07,10.68,10.68,0,0,0-.87-.63c-.39-.21-.59-.13-.8.26-.61,1.14-1.21,2.29-1.81,3.43A3.33,3.33,0,0,0,28.94,27.32Z"/><path class="cls-2" d="M22.82,6.92V4.24a.43.43,0,0,1,.12-.31L24.6,2.28a.37.37,0,0,1,.3-.12h4.68a.41.41,0,0,1,.3.12c.55.55,1.09,1.1,1.64,1.64a.45.45,0,0,1,.14.34V6.92h5c.32,0,.44.15.41.46C37,7.92,37,8.47,36.93,9s-.12,1.09-.17,1.64-.11,1.08-.16,1.62-.11,1.09-.17,1.64-.1,1.06-.16,1.6-.11,1.11-.16,1.66S36,18.26,36,18.8a10.15,10.15,0,0,1-.14,1.09,1.66,1.66,0,0,1-1.58,1.3H20.35a1.71,1.71,0,0,1-1.7-1.32c0-.28-.07-.56-.1-.84-.06-.55-.11-1.1-.17-1.66s-.09-.92-.13-1.38-.12-1.11-.17-1.67-.11-1.06-.16-1.6-.11-1.11-.17-1.66-.1-1.08-.16-1.61-.11-1.1-.16-1.65c0-.16,0-.32-.05-.47a.35.35,0,0,1,.37-.41h5.07ZM36.18,9.65H18.3c0,.38.07.75.11,1.13.05.54.11,1.08.16,1.63s.11,1.08.16,1.62.11,1.09.17,1.63.1,1.09.16,1.63.12,1.26.19,1.89a5.22,5.22,0,0,0,.07.57,1,1,0,0,0,1,.76H34.19a1,1,0,0,0,1-.81c.06-.32.08-.65.11-1,.06-.54.11-1.08.16-1.63s.11-1.1.17-1.65.1-1.07.16-1.61.11-1.11.17-1.66.09-.94.14-1.41S36.14,10,36.18,9.65ZM18.23,9h18l.13-1.35H18.09Zm11.05-4.4H25.2V6.91h4.08Zm0-.69v-1H25.2v1ZM24.51,6.92V3.33a.75.75,0,0,0-.09.09l-.86.85a.22.22,0,0,0-.07.17c0,.79,0,1.57,0,2.36v.12ZM30,3.33V6.91h1a.08.08,0,0,0,0,0V4.41a.2.2,0,0,0-.06-.12c-.12-.14-.26-.26-.39-.4Z"/><path class="cls-2" d="M32,14.74c0,.38,0,.77,0,1.16a1.35,1.35,0,0,1-2.67.12,1.27,1.27,0,0,1,0-.28v-2a1.36,1.36,0,0,1,2.7-.26,2.83,2.83,0,0,1,0,.29v1Zm-.67,0c0-.33,0-.66,0-1a1.48,1.48,0,0,0,0-.21.68.68,0,0,0-1.34.17v2a.71.71,0,0,0,0,.14.68.68,0,0,0,.73.54.67.67,0,0,0,.61-.68C31.32,15.41,31.32,15.08,31.32,14.74Z"/><path class="cls-2" d="M23.5,14.39h1a.34.34,0,0,1,.35.25.33.33,0,0,1-.34.43h-1v1.36h1.36a.33.33,0,0,1,.33.28.34.34,0,0,1-.24.38H23.18a.34.34,0,0,1-.36-.36v-4a.33.33,0,0,1,.35-.36h1.67a.34.34,0,1,1,0,.68H23.5Z"/><path class="cls-2" d="M25.88,14.73c0-.37,0-.74,0-1.12a1.35,1.35,0,0,1,1.21-1.25,1.37,1.37,0,0,1,1.47,1.08,1.94,1.94,0,0,1,0,.24.34.34,0,1,1-.67,0,.68.68,0,0,0-1.36,0c0,.71,0,1.42,0,2.13a.68.68,0,0,0,1.35,0,.07.07,0,0,1,0-.05.35.35,0,0,1,.35-.35.34.34,0,0,1,.32.36,1.36,1.36,0,0,1-1.2,1.34,1.38,1.38,0,0,1-1.48-1.05,2.58,2.58,0,0,1,0-.48c0-.28,0-.56,0-.85Z"/></svg>