<svg id="Layer_1" data-name="Layer 1" xmlns="http://www.w3.org/2000/svg" viewBox="0 0 60 60"><defs><style>.cls-1{fill:#da1c5c;stroke:#da1c5c;stroke-miterlimit:10;stroke-width:1.66px;}.cls-2{fill:#fff;}</style></defs><path class="cls-1" d="M48,.83H12a5.5,5.5,0,0,0-5.5,5.49V42.37A5.5,5.5,0,0,0,12,47.86H22.3l7.63,10.37,7.69-10.37H48a5.5,5.5,0,0,0,5.5-5.49v-36A5.5,5.5,0,0,0,48,.83Z"/><path class="cls-2" d="M47.24,8.18,29.61,3.75a3,3,0,0,1-.49-.2h-.93q-7.31,4.7-14.6,9.39a12.43,12.43,0,0,0-1.28,1.14v2.4c.13,1.86.27,3.72.37,5.59.16,3,.32,5.94.41,8.92l0,.3c.65-1.13,1.29-2.26,1.94-3.38q-.17-3.59-.35-7.15c-.08-1.72-.16-3.43-.25-5.28l1.42.38c1.73.52,3.46,1.05,5.2,1.54a.88.88,0,0,1,.76,1c0,.58,0,1.16,0,1.74a6.11,6.11,0,0,1,.73-.05h0A5,5,0,0,1,27,22.73l.18.31V19.26c1.52.45,3,.87,4.49,1.33.81.24,1.89.32,2.32.88s.13,1.6.14,2.43c.06,3.82.11,7.65.16,11.47.6,1,1.19,2.07,1.78,3.1a5.41,5.41,0,0,1,.51,1.19,5.89,5.89,0,0,0,.6-.5q5.54-5.38,11-10.81A11.84,11.84,0,0,0,49.24,27V9.46A2.56,2.56,0,0,0,47.24,8.18ZM27,12.57c-1.13.9-2.26,1.81-3.4,2.69-.22.17-.57.37-.79.31-2.11-.59-4.21-1.23-6.46-1.9l6.87-4.42c1.65-1.07,3.29-2.15,5-3.16a2.15,2.15,0,0,1,1.42-.27c1.44.29,2.85.71,4.44,1.12Zm8.61,6.28a1.12,1.12,0,0,1-1.23.25c-2-.62-3.91-1.18-6.06-1.82,3.06-2.55,6-4.87,8.84-7.41,1.45-1.32,2.79-1.77,4.65-1A34,34,0,0,0,46.13,10l-2.86,2.41C40.7,14.54,38.13,16.68,35.57,18.85ZM47.2,13c0,4.24-.05,8.48-.11,12.72a1.91,1.91,0,0,1-.44,1.21c-3.2,3.19-6.43,6.34-9.66,9.49a3.56,3.56,0,0,1-.36.26c0-.43-.06-.73-.06-1,0-4.64-.11-9.28-.13-13.92a1.37,1.37,0,0,1,.37-.95c3.32-2.82,6.68-5.61,10-8.4.06-.06.15-.07.36-.14Z"/><path class="cls-2" d="M40.86,28.87c-.24.24-.27.68-.4,1l.27.14c1.54-1.48,3.09-2.95,4.6-4.47.2-.2.17-.65.24-1l-.25-.08C43.83,26,42.32,27.39,40.86,28.87Z"/><path class="cls-2" d="M34.77,39.2c-1-1.76-2-3.51-3-5.26-2-3.49-4-7-6-10.46a3.59,3.59,0,0,0-3.16-1.88,4.79,4.79,0,0,0-.73.08l-.18,0a4,4,0,0,0-2.57,2.18c-2.78,4.88-5.6,9.75-8.4,14.62A9.05,9.05,0,0,0,9.88,40a3.58,3.58,0,0,0,3.5,4.67h18.2a3.56,3.56,0,0,0,3.42-5A4.93,4.93,0,0,0,34.77,39.2ZM22.48,29.37h0a1.21,1.21,0,0,1,1.15,1.25c0,.57,0,1.14,0,1.71s0,1.14,0,1.71a1.19,1.19,0,0,1-1.14,1.2h0A1.19,1.19,0,0,1,21.37,34c0-1.13,0-2.27,0-3.41A1.19,1.19,0,0,1,22.48,29.37Zm0,10.23h0a1.24,1.24,0,0,1-1.16-1.14,1.23,1.23,0,0,1,1.15-1.15h0a1.19,1.19,0,0,1,1.13,1.13A1.22,1.22,0,0,1,22.52,39.6Z"/><path class="cls-2" d="M42.75,22.13l-.88-1c-.3.94-.56,1.71-.81,2.49l.13.05Z"/><path class="cls-2" d="M42.16,23.2c-1.42,1.25-.46,2.86-.89,4.46C42.39,26.87,42.72,24.78,42.16,23.2Z"/><path class="cls-2" d="M45.18,19.82l-.87-1c-.31.92-.58,1.7-.85,2.49l.18.09Z"/><path class="cls-2" d="M44.71,21c-1.58,1.16-.58,2.78-.82,4.17C45.5,24,44.42,22.35,44.71,21Z"/></svg>