<svg id="Layer_1" data-name="Layer 1" xmlns="http://www.w3.org/2000/svg" viewBox="0 0 60 60"><defs><style>.cls-1{fill:#802d91;stroke:#802d91;stroke-miterlimit:10;stroke-width:1.66px;}.cls-2{fill:#fff;}</style></defs><path class="cls-1" d="M48,.83H12a5.5,5.5,0,0,0-5.5,5.49V42.37A5.5,5.5,0,0,0,12,47.86H22.3l7.63,10.37,7.69-10.37H48a5.5,5.5,0,0,0,5.5-5.49v-36A5.5,5.5,0,0,0,48,.83Z"/><path class="cls-2" d="M21.4,34.8H46c2,0,2.4-.48,2-2.42-1.3-5.63-2.61-11.27-3.88-16.91-.84-3.78-.8-3.79-4.73-4.11C38.88,8.68,40.41,4.94,36,4.51a13,13,0,0,0-6.29.56c-2.61,1.16-1.14,4.2-1.76,6.35a6.26,6.26,0,0,1-1.19.05C24.7,11.09,24,12,23.6,14c-1.25,6.15-2.77,12.24-4.19,18.35C19,34.29,19.37,34.8,21.4,34.8Zm12.74-2.22c-2.07,0-2.19-1.28-2.19-2.29v-.17h1.84v.34c0,.43.07.65.29.65s.24-.11.24-.4-.07-.55-.83-1C32.31,29,32,28.45,32,27.43c0-1.37.75-2,2.15-2,1.94,0,2.13,1.11,2.13,2v.35H34.48v-.39c0-.41,0-.55-.25-.55s-.26.12-.26.43.18.45.75.78c1.32.79,1.65,1.47,1.65,2.32C36.37,31.71,35.93,32.58,34.14,32.58Zm6.41-5.1v-2.6h2.08v2.6h2.55v2.07H42.63V32.2H40.55V29.55H38V27.48ZM39,16.16v4.23a2.18,2.18,0,0,1-2.48,2.44,2.14,2.14,0,0,1-2.4-2.44V16.18a2.19,2.19,0,0,1,2.41-2.45A2.23,2.23,0,0,1,39,16.16Zm-7.6-9.08a5.36,5.36,0,0,1,4.66,0c.81.48.58,2.72.84,4.31H30.49C30.77,9.78,30.56,7.56,31.38,7.08ZM28.64,20h2v.66c0,.3.05.53.3.53s.3-.21.3-.53V18.86c0-.39-.11-.47-.27-.47s-.33.12-.32.79l-2-.11c.15-1.46.26-3.36.35-5.19h4.2l-.21,1.82H31c0,.35-.06,1-.08,1.36a1.3,1.3,0,0,1,1.06-.43c1.11,0,1.5.79,1.5,2v1.46c0,1.31-.37,2.72-2.39,2.72-2.18,0-2.41-1.39-2.41-2.47Zm-2,10.83V23.46h2.06v2.6A1.36,1.36,0,0,1,30,25.39c1.05,0,1.44.68,1.44,2v2.89c0,1.27-.22,2.34-1.57,2.34a1.15,1.15,0,0,1-1.13-.71c0,.22,0,.45,0,.6h-2C26.68,32.18,26.68,31.16,26.68,30.81ZM23.9,23.46H26v9H23.9Z"/><path class="cls-2" d="M36.2,15.92v4.69c0,.35.08.56.32.56s.33-.19.33-.56V15.92c0-.3-.07-.52-.33-.52S36.2,15.63,36.2,15.92Z"/><path class="cls-2" d="M29.06,30.87c.12,0,.3,0,.3-.59V27.72c0-.37,0-.62-.31-.62s-.31.22-.31.58v2.57C28.74,30.8,28.88,30.87,29.06,30.87Z"/><polygon class="cls-2" points="16.04 13.65 13.34 8.96 10.63 13.65 13.06 13.65 13.06 31.92 10.63 31.92 13.34 36.61 16.04 31.92 13.61 31.92 13.61 13.65 16.04 13.65"/><polygon class="cls-2" points="48.66 39.45 43.97 36.74 43.97 39.18 20.93 39.18 20.93 36.74 16.24 39.45 20.93 42.16 20.93 39.72 43.97 39.72 43.97 42.16 48.66 39.45"/></svg>