<svg id="Layer_1" data-name="Layer 1" xmlns="http://www.w3.org/2000/svg" viewBox="0 0 60 60"><defs><style>.cls-1{fill:#00aeef;stroke:#00aeef;stroke-miterlimit:10;stroke-width:1.66px;}.cls-2{fill:none;}.cls-3{fill:#fff;}</style></defs><path class="cls-1" d="M48,.83H12a5.5,5.5,0,0,0-5.5,5.49V42.37A5.5,5.5,0,0,0,12,47.86H22.3l7.63,10.37,7.69-10.37H48a5.5,5.5,0,0,0,5.5-5.49v-36A5.5,5.5,0,0,0,48,.83Z"/><path class="cls-2" d="M35.28,7.2a5.61,5.61,0,0,0-4.88,0c-.85.5-.64,2.82-.93,4.5h6.69C35.89,10,36.12,7.7,35.28,7.2Z"/><path class="cls-3" d="M35.21,16.45v4.91c0,.37.09.58.35.58s.34-.2.34-.58V16.45c0-.32-.07-.54-.34-.54S35.21,16.15,35.21,16.45Z"/><path class="cls-3" d="M20,36.21H45.7c2.14,0,2.52-.51,2-2.53C46.39,27.79,45,21.9,43.69,16c-.88-4-.84-4-4.95-4.3-.49-2.81,1.11-6.72-3.5-7.18a13.69,13.69,0,0,0-6.58.6c-2.73,1.2-1.19,4.39-1.84,6.63a6.09,6.09,0,0,1-1.24.06c-2.17-.4-2.9.57-3.32,2.67-1.31,6.44-2.9,12.81-4.38,19.21C17.42,35.67,17.84,36.21,20,36.21Zm13.32-2.32c-2.16,0-2.28-1.34-2.28-2.4v-.17h1.92v.35c0,.44.08.67.31.67s.24-.1.24-.41-.06-.57-.86-1.07C31.38,30.08,31,29.57,31,28.5a2,2,0,0,1,2.24-2.14c2,0,2.24,1.17,2.24,2.1v.37H33.65v-.41c0-.43,0-.58-.27-.58s-.27.12-.27.44.19.48.78.83c1.38.83,1.74,1.53,1.74,2.42C35.63,33,35.17,33.89,33.28,33.89ZM40,28.55V25.83h2.18v2.72h2.67v2.16H42.17v2.78H40V30.71H37.36V28.55ZM38.13,16.7v4.43a2.29,2.29,0,0,1-2.6,2.56A2.24,2.24,0,0,1,33,21.13V16.72a2.3,2.3,0,0,1,2.53-2.56A2.34,2.34,0,0,1,38.13,16.7ZM30.4,7.21a5.61,5.61,0,0,1,4.88,0c.84.5.61,2.84.88,4.51H29.47C29.76,10,29.55,7.71,30.4,7.21Zm-3,9.62c0-1.14.3-2.67,2.43-2.67a2.19,2.19,0,0,1,2.38,2.5c0,1.36-.49,2-1.51,3.51a4.88,4.88,0,0,0-.77,1.47h2.44l-.23,1.9H27.41v-.28a6.82,6.82,0,0,1,1.44-4.1c.88-1.38,1.11-1.74,1.11-2.73,0-.31,0-.52-.3-.52s-.33.27-.33.71v.64h-2ZM25.49,32V24.34h2.15v2.73a1.43,1.43,0,0,1,1.3-.71c1.1,0,1.5.72,1.5,2.06v3c0,1.32-.23,2.45-1.64,2.45a1.23,1.23,0,0,1-1.19-.75,5.27,5.27,0,0,1,0,.63h-2.1C25.49,33.47,25.49,32.4,25.49,32Zm-2.91-7.69h2.15v9.43H22.58Z"/><path class="cls-3" d="M28,32.1c.12,0,.31,0,.31-.62V28.8c0-.38,0-.65-.33-.65s-.32.23-.32.61v2.69C27.64,32,27.79,32.1,28,32.1Z"/><polygon class="cls-3" points="14.35 12.12 11.52 7.22 8.69 12.12 11.13 12.12 11.13 35.26 8.69 35.26 11.52 40.16 14.35 35.26 11.91 35.26 11.91 12.12 14.35 12.12"/><polygon class="cls-3" points="48.48 41.07 43.57 38.24 43.57 40.68 19.46 40.68 19.46 38.24 14.56 41.07 19.46 43.9 19.46 41.46 43.57 41.46 43.57 43.9 48.48 41.07"/></svg>