<svg id="Layer_1" data-name="Layer 1" xmlns="http://www.w3.org/2000/svg" viewBox="0 0 60 60"><defs><style>.cls-1{fill:#2e3192;stroke:#2e3192;stroke-miterlimit:10;stroke-width:1.66px;}.cls-2{fill:#fff;}</style></defs><path class="cls-1" d="M48,.83H12a5.5,5.5,0,0,0-5.5,5.49V42.37A5.5,5.5,0,0,0,12,47.86H22.3l7.63,10.37,7.69-10.37H48a5.5,5.5,0,0,0,5.5-5.49v-36A5.5,5.5,0,0,0,48,.83Z"/><path class="cls-2" d="M39.63,4.86c-1.69,4.21-4.51,6.9-9,7.22-5.3.38-8.66-2.42-10.68-7.22A32.31,32.31,0,0,0,8.2,15.64l7.23,6,.66-.75.4.11V43.54H43.22v-23l1,1.07,7.25-6A33.37,33.37,0,0,0,39.63,4.86ZM23.9,32.37c-.09-1.25-.24-2.65-.35-4.14h-.14c-.06,1.15-.26,3.1-.35,4.14H20.22l1.25-5.94-1.23-6.31h3c.06.79.17,2.89.21,3.81h.16c.08-1,.35-3,.41-3.81h2.78l-1.27,5.76,1.4,6.49Zm7,0c-.09-1.25-.24-2.65-.35-4.14h-.14c-.06,1.15-.26,3.1-.35,4.14H27.23l1.25-5.94-1.23-6.31h3c.06.79.17,2.89.21,3.81h.16c.08-1,.35-3,.41-3.81h2.77L32.5,25.88l1.39,6.49Zm9.11,0H34.65V20.12h2.92v9.77h2.74Z"/></svg>