<svg id="Layer_1" data-name="Layer 1" xmlns="http://www.w3.org/2000/svg" viewBox="0 0 60 60"><defs><style>.cls-1{fill:#f15a29;stroke:#f15a29;stroke-miterlimit:10;stroke-width:1.66px;}.cls-2{fill:#fff;}</style></defs><path class="cls-1" d="M48,.83H12a5.5,5.5,0,0,0-5.5,5.49V42.37A5.5,5.5,0,0,0,12,47.86H22.3l7.63,10.37,7.69-10.37H48a5.5,5.5,0,0,0,5.5-5.49v-36A5.5,5.5,0,0,0,48,.83Z"/><path class="cls-2" d="M11.36,20.09c2.27,5.63,7.22,7.44,12.47,8.68a52.79,52.79,0,0,0,18.08.73c.14,0,.27-.15.73-.43-2.51-.21-4.71-.23-6.85-.61-4.72-.84-9.48-1.6-14.08-2.9a11.65,11.65,0,0,1-8.13-7.24,6.94,6.94,0,0,1-.31-1,3.3,3.3,0,0,1,0-.71c2.06-.64,2.77.84,3.46,2.18,1.27,2.51,2.21,3,4.81,1.85A45.76,45.76,0,0,0,26.12,18c-.42-.83-.94-1.39-.93-1.94a3.92,3.92,0,0,1,.7-2.6,2.58,2.58,0,0,1,2.48.05c1.84,1.44,3.78,2.94,3.71,5.68a1.34,1.34,0,0,0,.2.67,8.92,8.92,0,0,0,.68.84,4,4,0,0,0,.48-1,2.83,2.83,0,0,1,.39-1.24c.33.57.67,1.13,1,1.71s.56,1.12.83,1.67l.83-2.13,1.69,3.46.42-.05.28-1.94.39-.25.89,1.65.9,1.59c.07-.61.15-1.23.22-1.84,0-.17,0-.35,0-.74,2.73.3,5.45.53,8.15.92,1.1.16,2.08,2.7,1.56,4.12a5.69,5.69,0,0,1-3.3,3.76c-1.24.46-2.29,1.45-3.53,1.92a15.46,15.46,0,0,1-3.6.66,32.63,32.63,0,0,1-3.82.23c-2,0-4-.15-6-.17-2.66,0-5.31,0-8,0-1.59,0-3.2.15-4.78,0A53.91,53.91,0,0,1,11.37,32c-.63-.15-1.6-1-1.57-1.54.22-3.45.66-6.89,1-10.33Z"/></svg>