<svg id="Layer_1" data-name="Layer 1" xmlns="http://www.w3.org/2000/svg" viewBox="0 0 60 60"><defs><style>.cls-1{fill:#ee2d45;stroke:#ee2d45;stroke-miterlimit:10;stroke-width:1.66px;}.cls-2{fill:#fff;}</style></defs><path class="cls-1" d="M48,.83H12a5.5,5.5,0,0,0-5.5,5.49V42.37A5.5,5.5,0,0,0,12,47.86H22.3l7.63,10.37,7.69-10.37H48a5.5,5.5,0,0,0,5.5-5.49v-36A5.5,5.5,0,0,0,48,.83Z"/><path class="cls-2" d="M10.06,24.39a1.47,1.47,0,0,0,1.19,1.53c4.3,1.41,8.59,2.86,12.88,4.31.18.06.36.16.54.24h.61a8.35,8.35,0,0,0,.81-.63l7.35-7.2a8.68,8.68,0,0,0,.7-.9V10.05a1.71,1.71,0,0,0-1.33-.86Q26.93,7.74,21.06,6.24a2.26,2.26,0,0,1-.33-.13h-.61c-3.25,2.09-6.49,4.16-9.73,6.26a6.08,6.08,0,0,0-.85.76v1.59c.08,1.25.17,2.49.24,3.73C9.89,20.43,10,22.41,10.06,24.39Zm22.72-12.5v.5c0,2.83,0,5.65-.07,8.48a1.3,1.3,0,0,1-.29.8C30.28,23.8,28.13,25.9,26,28l-.24.17c0-.29,0-.49,0-.69q-.06-4.64-.09-9.27a.92.92,0,0,1,.25-.64c2.21-1.87,4.45-3.73,6.68-5.59C32.58,11.94,32.64,11.94,32.78,11.89ZM29.16,9.64a20.86,20.86,0,0,0,2.91.75L30.16,12,25,16.3a.73.73,0,0,1-.82.17c-1.29-.41-2.6-.79-4-1.21,2-1.7,4-3.25,5.89-4.94A2.67,2.67,0,0,1,29.16,9.64Zm-12.38.27C17.88,9.2,19,8.47,20.09,7.8A1.42,1.42,0,0,1,21,7.62c1,.2,1.9.47,3,.75l-4.7,3.75c-.75.6-1.5,1.21-2.26,1.79-.15.11-.38.25-.53.21-1.4-.39-2.8-.82-4.3-1.27Zm-4.87,4.4c1.16.35,2.31.7,3.47,1a.58.58,0,0,1,.5.68c0,1,0,2,0,3l3.56.87V16.58l3,.88c.54.17,1.26.22,1.55.59s.08,1.06.09,1.62l.12,8.24v.84L19.1,27,12,24.68a.68.68,0,0,1-.57-.72c-.09-2.13-.2-4.25-.31-6.38-.05-1.15-.11-2.29-.16-3.52Z"/><path class="cls-2" d="M42.23,25a5.8,5.8,0,0,0-5.79.28c-3.94,2.31-7.83,4.7-11.71,7.1a2.73,2.73,0,0,0-1,1.33,2,2,0,0,0,.73,2.35,2.19,2.19,0,0,0,2.67.11c2.34-1.41,4.67-2.85,7-4.23.29-.17.75,0,1.13,0-.18.34-.26.83-.54,1-2.35,1.47-4.73,2.91-7.12,4.32a3.41,3.41,0,0,1-4.16-.43,3.33,3.33,0,0,1-.7-3.93c.36-.73.09-1-.52-1.2l-2.78-1c-2.29-.84-4.57-1.75-6.9-2.5a2,2,0,0,0-2.71,2.44,3.41,3.41,0,0,0,1.51,1.84c5,2.83,10.14,5.55,15.21,8.35a4.45,4.45,0,0,0,4.29.14c3.48-1.61,7-3.16,10.47-4.78a2.23,2.23,0,0,1,2.27.09c1.24.75,2.54,1.41,3.87,2.13l4.42-8.11C48.65,28.5,45.47,26.69,42.23,25Z"/></svg>