<svg id="Layer_1" data-name="Layer 1" xmlns="http://www.w3.org/2000/svg" viewBox="0 0 60 60"><defs><style>.cls-1{fill:#39b54a;stroke:#39b54a;stroke-miterlimit:10;stroke-width:1.66px;}.cls-2{fill:#fff;}</style></defs><path class="cls-1" d="M48,.83H12a5.5,5.5,0,0,0-5.5,5.49V42.37A5.5,5.5,0,0,0,12,47.86H22.3l7.63,10.37,7.69-10.37H48a5.5,5.5,0,0,0,5.5-5.49v-36A5.5,5.5,0,0,0,48,.83Z"/><path class="cls-2" d="M33.88,28.21h-.65c-.19-.08-.37-.19-.56-.25-4.5-1.52-9-3-13.51-4.52a1.55,1.55,0,0,1-1.25-1.6c-.07-2.08-.18-4.16-.29-6.24-.07-1.3-.17-2.6-.26-3.9V10a8.45,8.45,0,0,1,.9-.8l10.2-6.56h.64a2.55,2.55,0,0,0,.35.14c4.11,1,8.21,2.07,12.32,3.09a1.83,1.83,0,0,1,1.4.9V19.05a7.59,7.59,0,0,1-.73.94c-2.56,2.53-5.14,5.05-7.71,7.56A10.74,10.74,0,0,1,33.88,28.21ZM32.72,26.4v-.88l-.12-8.64c0-.58.18-1.32-.1-1.69s-1.06-.45-1.63-.62c-1-.32-2.07-.62-3.13-.93v3.47L24,16.2c0-1,0-2.08,0-3.14a.62.62,0,0,0-.53-.72c-1.22-.34-2.43-.72-3.64-1.08l-1-.26c.06,1.29.12,2.49.18,3.69.11,2.23.23,4.46.32,6.7a.71.71,0,0,0,.59.75c2.49.81,5,1.65,7.45,2.48Zm1.64-.6.25-.18c2.25-2.21,4.51-4.41,6.75-6.63a1.36,1.36,0,0,0,.31-.85c0-3,0-5.93.07-8.89V8.72a1.44,1.44,0,0,0-.25.09q-3.51,2.92-7,5.87a1,1,0,0,0-.26.67c0,3.24.06,6.49.09,9.73C34.31,25.29,34.34,25.5,34.36,25.8ZM28.52,12.25c1.5.45,2.88.84,4.24,1.28a.79.79,0,0,0,.86-.18c1.78-1.51,3.58-3,5.38-4.51l2-1.69a25.79,25.79,0,0,1-3-.78,2.77,2.77,0,0,0-3.25.71C32.74,8.85,30.66,10.47,28.52,12.25Zm4-7.22c-1.11-.29-2.09-.58-3.1-.78a1.49,1.49,0,0,0-1,.18C27.25,5.14,26.11,5.9,25,6.64L20.15,9.73c1.58.47,3,.92,4.52,1.33a.81.81,0,0,0,.55-.22c.8-.61,1.59-1.25,2.37-1.88Zm4.7,16.14c1.08-1,2.16-2.06,3.21-3.12.15-.14.12-.45.18-.69l-.18-.05c-1,1-2.09,2-3.12,3.05a2.12,2.12,0,0,0-.28.72Zm1-4.78c-1,.88-.32,2-.62,3.12A2.91,2.91,0,0,0,38.22,16.39Zm1.21,1.35c1.13-.79.37-1.94.57-2.91C38.9,15.64,39.6,16.77,39.43,17.74Zm-.17-2.59L40.33,14l-.61-.69-.59,1.74Zm-1.81,1.56.1,0,1.08-1.11L38,15Zm-8.18,19.8a5,5,0,0,0-2.61-4.3c-3.39-2-6.82-4-10.27-6A2.35,2.35,0,0,0,15,26a1.75,1.75,0,0,0-1.49,1.54,1.9,1.9,0,0,0,1,2.07c2,1.2,4.11,2.38,6.15,3.61.24.15.33.55.49.84-.33,0-.74.14-1,0C18,32.9,16,31.68,13.9,30.45a3,3,0,0,1-1.4-3.35,2.89,2.89,0,0,1,2.7-2.16c.7,0,.79-.33.7-.89-.13-.85-.25-1.69-.37-2.54-.31-2.1-.56-4.21-1-6.29a1.76,1.76,0,0,0-3-1.05,2.94,2.94,0,0,0-.77,1.91c-.07,5,0,10-.05,15a3.84,3.84,0,0,0,1.67,3.32c2.67,2,5.31,4,8,6a1.87,1.87,0,0,1,.87,1.75c-.05,1.26,0,2.52,0,3.84h8C29.29,42.83,29.35,39.67,29.27,36.51Zm15.16-11.6c1.68.12,2.74.89,3.07,2.2a3.06,3.06,0,0,1-1.73,3.55L40.11,34a1.92,1.92,0,0,1-.68.32.68.68,0,0,1-.55-.23.61.61,0,0,1,.11-.56,2.71,2.71,0,0,1,.7-.48c1.94-1.13,3.9-2.24,5.82-3.4a1.94,1.94,0,0,0,.22-3.32,2,2,0,0,0-2.4.07c-3.14,1.85-6.27,3.7-9.44,5.5a6,6,0,0,0-3.24,5.6c0,2.57,0,5.14,0,7.71,0,.28,0,.56.05.85h8c0-1.31,0-2.57,0-3.83a1.9,1.9,0,0,1,.87-1.76c2.68-2,5.32-4,8-6a3.82,3.82,0,0,0,1.66-3.33c0-2.38,0-4.76,0-7.14,0-2.7,0-5.4,0-8.09,0-1.68-1.66-2.8-2.89-1.91a3.27,3.27,0,0,0-1,1.91c-.35,1.77-.55,3.57-.8,5.36-.16,1.17-.3,2.36-.45,3.56Z"/></svg>